# xmcd CD database file
#
# Track frame offsets:
#	150
#	11602
#	20712
#	40669
#	54403
#	66895
#	83460
#	116799
#	146359
#	176424
#	197161
#
# Disc length: 3512 seconds
#
# Revision: 0
# Processed by: cddbd v1.5.2PL0 Copyright (c) Steve Scherf et al.
# Submitted via: CDex 1.51
#
DISCID=8b0db60b
DTITLE=La locomotora negra - Memorial Duke Ellington
DYEAR=2001
DGENRE=Jazz
TTITLE0=Presentació
TTITLE1=Anticipació
TTITLE2=Tom's Wail
TTITLE3=Jubilee
TTITLE4=Ican't tell the world
TTITLE5=Praise world
TTITLE6=Something about believing
TTITLE7=Almighty god
TTITLE8=The sheperd
TTITLE9=Heaven
TTITLE10=It's freedom
EXTD=YEAR: 2001
EXTT0=
EXTT1=
EXTT2=
EXTT3=
EXTT4=
EXTT5=
EXTT6=
EXTT7=
EXTT8=
EXTT9=
EXTT10=
PLAYORDER=
